<svg width="1746" height="582" viewBox="0 0 1746 582" fill="none" xmlns="http://www.w3.org/2000/svg">
<path d="M26.8856 211.277C27.918 210.629 28.9455 210.469 29.9681 210.795C31.1241 210.938 32.0258 211.525 32.6732 212.558C33.2958 213.432 33.4565 214.459 33.1554 215.64C32.9876 216.638 32.4666 217.448 31.5923 218.071C29.3943 219.548 30.1263 237.167 33.7883 270.927C34.2484 274.903 36.6102 290 40.8734 316.216C45.1367 342.432 47.3425 356.014 47.4909 356.963C47.6146 357.753 48.0173 358.257 48.699 358.474C49.3561 358.533 50.2255 358.397 51.3073 358.066C52.3891 357.735 53.5376 357.312 54.7528 356.798C55.9679 356.284 57.25 355.679 58.598 354.982C60.08 354.102 61.337 353.339 62.37 352.692C63.56 352.02 64.671 351.36 65.704 350.713C66.869 349.882 67.519 349.376 67.652 349.193C75.536 344.721 83.373 340.985 91.162 337.985C98.952 334.985 106.051 332.74 112.458 331.252C118.865 329.764 127.351 328.113 137.918 326.298C141.213 325.62 142.998 324.612 143.275 323.273C143.685 321.752 143.301 319.301 142.125 315.923C141.522 313.102 140.563 309.041 139.247 303.741C138.09 298.416 137.438 295.279 137.289 294.33C133.008 275.243 128.795 257.116 124.652 239.95C124.479 238.844 124.647 237.846 125.156 236.956C125.798 235.884 126.66 235.183 127.741 234.851C128.216 234.777 128.702 234.782 129.201 234.866C129.858 234.925 130.382 235.167 130.772 235.592C131.296 235.834 131.674 236.18 131.906 236.629C132.297 237.054 132.529 237.503 132.603 237.978C138.995 264.346 144.852 290.394 150.172 316.121C151.131 320.182 152.226 322.521 153.456 323.138C154.686 323.755 157.71 323.93 162.526 323.662C179.871 322.73 188.938 322.202 189.728 322.079C194.594 322.127 199.381 322.188 204.089 322.261C204.904 322.296 205.586 322.513 206.135 322.913C206.841 323.288 207.323 323.78 207.58 324.387C207.995 324.97 208.185 325.669 208.151 326.484C208.166 327.616 207.749 328.572 206.899 329.352C206.049 330.133 205.059 330.531 203.928 330.546C203.587 330.437 202.443 330.373 200.497 330.354C198.709 330.31 196.92 330.266 195.132 330.221C193.502 330.153 191.397 330.158 188.819 330.237C186.215 330.159 183.703 330.147 181.282 330.202C179.02 330.232 176.599 330.287 174.021 330.366C171.442 330.446 169.125 330.646 167.07 330.968C164.99 331.131 163.002 331.361 161.105 331.658C159.366 331.93 157.981 332.39 156.948 333.037C156.049 333.502 155.479 333.996 155.237 334.519C154.787 334.752 155.186 338.333 156.432 345.264C157.653 352.036 158.801 358.335 159.874 364.159C161.08 369.8 162.502 376.299 164.138 383.654C165.775 391.01 166.692 395.32 166.89 396.584C170.143 413.241 173.148 429.857 175.902 446.43C181.338 479.103 184.554 504.835 185.55 523.627C186.79 547.077 183.877 559.517 176.813 560.946L175.865 561.094C175.208 561.035 174.526 560.818 173.819 560.442C173.138 560.225 172.589 559.825 172.174 559.242C171.759 558.659 171.49 557.973 171.366 557.182C171.351 556.051 171.677 555.028 172.344 554.114C173.193 553.334 174.171 552.857 175.278 552.684C177.624 552.155 178.324 542.652 177.377 524.177C176.296 505.884 173.039 480.401 167.603 447.728C155.892 377.009 148.425 339.634 145.204 335.603C143.642 333.904 139.026 333.898 131.354 335.584C118.283 337.952 105.319 341.519 92.461 346.284C80.235 350.949 69.338 356.865 59.771 364.03C57.148 365.897 55.0241 367.849 53.3992 369.885C51.9077 371.738 50.7989 373.45 50.073 375.021C49.4805 376.409 49.1993 378.234 49.2293 380.497C49.3927 382.577 49.5981 384.407 49.8454 385.988C50.226 387.386 50.8217 389.641 51.6325 392.753C52.4185 395.707 53.0637 398.278 53.568 400.466C53.7658 401.731 54.0131 403.312 54.3099 405.209C54.74 406.923 55.1034 408.728 55.4002 410.625C55.6722 412.364 55.9986 413.932 56.379 415.33C60.251 435.94 63.198 451.673 65.221 462.531C67.243 473.389 69.234 486.114 71.193 500.707C73.152 515.299 74.229 527.358 74.423 536.882C74.594 551.43 72.773 562.566 68.961 570.288C65.149 578.01 58.876 581.906 50.1417 581.977C43.0379 582.117 35.1944 575.975 26.6112 563.553C18.186 551.105 11.645 535.691 6.98799 517.31C2.19759 499.112 0.18109 481.046 0.93849 463.114C1.72499 442.261 6.13539 423.353 14.1696 406.387C16.1301 402.355 17.94 398.914 19.5993 396.064C21.4167 393.188 22.9921 390.836 24.3256 389.008C25.8172 387.155 28.1755 384.114 31.4005 379.885C34.2503 376.362 36.0774 372.514 36.8818 368.339C37.6615 364.007 37.6928 359.548 36.9756 354.964C36.2585 350.38 35.3386 345.017 34.216 338.877C31.7828 324.359 29.0668 303.893 26.0682 277.479C25.9693 276.846 25.8209 275.898 25.623 274.633C25.5833 273.344 25.5139 272.383 25.415 271.751C21.4165 234.805 21.9067 214.647 26.8856 211.277ZM22.2767 408.519L21.5137 409.853C13.9881 425.93 9.89119 443.737 9.22299 463.275C8.52479 480.551 10.43 497.905 14.9386 515.337C19.1655 532.004 24.6565 545.882 31.4117 556.971C38.3496 568.194 44.5678 573.78 50.066 573.73C55.8805 573.63 60.002 570.475 62.432 564.265C65.019 558.03 66.28 549.006 66.213 537.195C66.043 527.828 64.991 515.928 63.057 501.494C61.123 487.059 59.144 474.413 57.122 463.555C55.1241 452.855 52.1226 437.292 48.1173 416.866C47.9441 415.759 47.6845 414.099 47.3383 411.886C47.1501 409.649 46.7421 407.04 46.1141 404.061C45.6442 401.058 45.1201 398.225 44.5416 395.562C44.0964 392.717 43.555 390.292 42.9174 388.286C42.4378 386.256 41.9238 385.041 41.3754 384.641C38.3763 382.033 32.052 389.743 22.4025 407.771L22.2767 408.519ZM224.975 374.379C225.663 381.883 227.447 385.005 230.327 383.745C233.498 382.277 236.696 376.837 239.92 367.426C242.142 360.924 242.801 356.854 241.896 355.214C241.175 353.707 239.604 352.981 237.183 353.036C234.896 352.908 232.532 353.845 230.092 355.846C227.627 357.689 226.035 360.448 225.314 364.124C224.87 366.461 224.757 369.879 224.975 374.379ZM333.178 337.775C333.479 336.595 334.158 335.76 335.215 335.27C336.272 334.781 337.312 334.699 338.335 335.025C339.357 335.351 340.113 336.043 340.603 337.1C341.25 338.132 341.411 339.16 341.085 340.182C338.562 347.865 334.224 356.883 328.07 367.239C321.892 377.436 315.193 385.853 307.972 392.489C302.375 397.089 297.214 400.326 292.486 402.199C287.784 404.23 283.54 405.056 279.756 404.676C276.155 404.43 272.684 402.949 269.344 400.232C266.138 397.333 263.24 393.819 260.65 389.689C258.036 385.402 255.498 380.05 253.037 373.633C252.266 371.81 251.582 370.541 250.984 369.825C250.361 368.951 249.679 368.733 248.938 369.173C248.356 369.588 247.822 370.319 247.338 371.367C246.83 372.256 246.079 373.669 245.086 375.606C244.869 376.288 244.398 377.414 243.672 378.985C243.104 380.531 242.699 381.566 242.457 382.09C242.215 382.614 241.785 383.491 241.168 384.721C240.526 385.793 239.993 386.524 239.568 386.915C239.143 387.305 238.506 387.89 237.656 388.671C236.965 389.427 236.17 390.037 235.271 390.502C234.53 390.942 233.552 391.419 232.337 391.933C231.255 392.264 230.015 392.62 228.617 393C224.383 392.853 221.33 390.416 219.457 385.688C217.425 380.986 216.476 375.952 216.608 370.587C216.741 365.222 217.508 360.811 218.91 357.352C224.5 345.465 233.622 342.176 246.274 347.484C247.504 348.102 248.569 348.178 249.468 347.713C250.5 347.066 251.577 347.221 252.699 348.18C253.82 349.138 254.866 351.16 255.834 354.248C256.116 355.014 256.563 356.32 257.176 358.168C257.938 360.963 258.521 363.139 258.926 364.695C259.49 366.227 260.244 368.457 261.188 371.386C262.132 374.316 262.977 376.613 263.723 378.277C264.603 379.759 265.648 381.782 266.859 384.346C268.045 386.751 269.223 388.591 270.394 389.865C271.699 390.957 273.119 392.273 274.656 393.814C276.168 395.197 277.764 396.081 279.443 396.466C281.257 396.668 283.136 396.779 285.083 396.798C287.162 396.635 289.326 395.973 291.573 394.811C293.954 393.467 296.444 391.782 299.042 389.756C300.766 388.353 303.023 386.218 305.814 383.353C311.345 377.305 316.546 370.176 321.415 361.964C326.284 353.753 330.205 345.69 333.178 337.775ZM330.567 317.293L329.819 317.167C329.295 316.925 328.772 316.683 328.248 316.441C327.858 316.016 327.534 315.5 327.277 314.893C327.02 314.285 326.854 313.744 326.78 313.27C326.706 312.796 326.686 312.151 326.72 311.336C326.755 310.521 326.814 309.864 326.898 309.365C326.824 308.89 326.883 308.233 327.075 307.394C327.243 306.396 327.315 305.818 327.29 305.66C328.232 298.225 330.138 294.364 333.008 294.077C335.088 293.913 336.823 296.719 338.212 302.493C339.576 308.11 340.477 315.419 340.913 324.419C341.508 333.395 341.895 342.08 342.074 350.473C342.412 358.841 342.554 366.997 342.501 374.941C342.582 382.702 342.592 386.911 342.533 387.568C342.702 391.752 342.849 399.421 342.975 410.576C343.283 421.864 343.566 430.403 343.824 436.193C344.027 439.562 344.166 438.892 344.239 434.184C344.258 432.238 344.275 429.239 344.289 425.189C344.274 424.057 344.266 423.492 344.266 423.492C344.335 421.861 344.364 418.942 344.354 414.733C344.195 409.575 344.117 405.458 344.122 402.38C344.126 399.303 344.12 394.607 344.104 388.294C344.088 381.98 344.154 376.707 344.301 372.473C344.449 368.239 344.685 363.02 345.01 356.815C345.468 350.428 345.996 345.001 346.592 340.535C347.189 336.069 347.974 331.25 348.946 326.078C349.918 320.905 351.014 316.523 352.234 312.932C353.453 309.34 354.959 306.027 356.752 302.994C358.545 299.96 360.461 297.717 362.501 296.264L363.375 295.642C369.619 292.074 375.614 293.646 381.36 300.359C385.022 305.13 387.668 310.141 389.299 315.392C390.931 320.643 391.734 325.781 391.711 330.805C391.845 335.804 391.275 341.48 390.002 347.833C389.39 351.168 389.608 353.077 390.655 353.561C392.775 354.687 400.718 354.74 414.486 353.72C425.226 353.011 433.93 350.678 440.598 346.72C447.242 342.603 453.569 335.945 459.579 326.746C461.421 324.029 463.189 320.837 464.883 317.171C465.391 316.282 466.187 315.672 467.268 315.34C468.325 314.851 469.378 314.848 470.425 315.332C471.472 315.816 472.162 316.599 472.493 317.681C472.982 318.738 472.906 319.803 472.264 320.875C463.464 338.122 453.603 349.625 442.682 355.382C431.894 360.956 416.943 363.214 397.83 362.156C389.837 361.787 385.349 362.084 384.366 363.047C383.783 363.462 382.771 364.754 381.328 366.923C379.862 368.934 378.783 370.318 378.091 371.074C371.878 376.904 366.775 379.484 362.783 378.813C359.948 378.285 358.161 376.702 357.425 374.064C356.688 371.426 357.016 368.864 358.409 366.379C360.661 362.14 364.941 358.961 371.249 356.84C372.331 356.509 373.953 356.012 376.117 355.35C377.54 355.127 378.609 354.717 379.325 354.119C380.042 353.521 380.508 352.881 380.725 352.2C381.101 351.493 381.481 350.3 381.866 348.62C383.046 343.739 383.685 339.024 383.783 334.474C383.762 331.238 383.443 327.645 382.825 323.693C381.272 315.838 378.714 309.842 375.152 305.702C372.37 302.413 369.868 301.428 367.645 302.747C363.333 305.203 359.928 312.942 357.431 325.965C354.766 339.985 353.254 355.688 352.897 373.072C352.515 390.298 352.402 408.21 352.559 426.81C352.74 445.567 352.202 461.279 350.945 473.946C349.554 486.795 347.678 492.919 345.317 492.316C344.793 492.074 344.324 491.662 343.909 491.079C339.916 485.226 336.721 450.826 334.323 387.881C334.075 381.118 333.935 374.014 333.904 366.569C333.69 358.991 333.511 350.598 333.366 341.39C333.354 331.999 333.36 324.791 333.384 319.767C333.31 319.293 333.235 318.819 333.161 318.345C333.196 317.529 333.2 317.043 333.176 316.885C333.151 316.727 332.914 316.764 332.464 316.996C331.674 317.12 331.042 317.219 330.567 317.293ZM371.836 365.251L371.399 365.562C368.386 367.005 366.504 368.433 365.753 369.846L369.724 367.281C371.023 366.268 371.727 365.591 371.836 365.251ZM461.861 296.753L461.113 296.627C460.589 296.385 460.065 296.143 459.542 295.901C459.151 295.476 458.828 294.96 458.571 294.353C458.314 293.745 458.148 293.204 458.074 292.73C458 292.256 457.98 291.611 458.014 290.796C458.049 289.981 458.108 289.324 458.192 288.825C458.117 288.35 458.177 287.693 458.369 286.854C458.537 285.856 458.608 285.278 458.584 285.12C459.526 277.685 461.432 273.824 464.302 273.537C466.382 273.373 468.116 276.179 469.506 281.953C470.87 287.57 471.77 294.879 472.207 303.879C472.801 312.855 473.188 321.54 473.368 329.933C473.705 338.301 473.848 346.457 473.795 354.401C473.875 362.162 473.886 366.371 473.827 367.028C473.996 371.212 474.143 378.881 474.268 390.036C474.577 401.324 474.86 409.863 475.118 415.653C475.321 419.022 475.459 418.352 475.533 413.644C475.552 411.698 475.569 408.699 475.583 404.649C475.568 403.517 475.56 402.952 475.56 402.952C475.629 401.321 475.658 398.402 475.647 394.193C475.488 389.035 475.411 384.918 475.415 381.84C475.42 378.763 475.414 374.067 475.398 367.754C475.382 361.44 475.448 356.167 475.595 351.933C475.742 347.699 475.979 342.48 476.303 336.275C476.762 329.888 477.289 324.461 477.886 319.995C478.483 315.529 479.268 310.71 480.24 305.538C481.212 300.365 482.308 295.983 483.527 292.392C484.747 288.8 486.253 285.487 488.046 282.454C489.838 279.42 491.755 277.177 493.795 275.724L494.669 275.102C500.912 271.534 506.908 273.106 512.654 279.819C516.316 284.59 518.962 289.601 520.593 294.852C522.224 300.103 523.028 305.241 523.004 310.265C523.139 315.264 522.569 320.94 521.296 327.293C520.684 330.628 520.902 332.537 521.949 333.021C524.068 334.147 532.012 334.2 545.78 333.18C556.519 332.471 565.223 330.138 571.892 326.18C578.535 322.063 584.862 315.406 590.873 306.206C592.715 303.489 594.483 300.297 596.176 296.631C596.685 295.742 597.48 295.132 598.562 294.8C599.619 294.311 600.671 294.308 601.719 294.792C602.766 295.276 603.455 296.059 603.787 297.141C604.276 298.198 604.2 299.263 603.558 300.335C594.758 317.582 584.897 329.085 573.976 334.842C563.187 340.416 548.237 342.674 529.124 341.616C521.13 341.247 516.642 341.544 515.66 342.507C515.077 342.922 514.064 344.214 512.622 346.383C511.155 348.394 510.076 349.778 509.385 350.534C503.171 356.364 498.069 358.944 494.077 358.273C491.241 357.745 489.455 356.162 488.719 353.524C487.982 350.886 488.31 348.325 489.703 345.839C491.955 341.6 496.234 338.421 502.543 336.3C503.624 335.969 505.247 335.472 507.411 334.81C508.833 334.587 509.903 334.177 510.619 333.579C511.335 332.981 511.802 332.341 512.019 331.66C512.394 330.953 512.775 329.76 513.16 328.08C514.339 323.199 514.978 318.484 515.076 313.934C515.056 310.698 514.737 307.105 514.118 303.153C512.566 295.298 510.008 289.302 506.445 285.162C503.664 281.873 501.161 280.888 498.938 282.207C494.626 284.663 491.222 292.402 488.724 305.425C486.059 319.445 484.548 335.148 484.191 352.532C483.809 369.758 483.696 387.67 483.853 406.27C484.034 425.027 483.496 440.739 482.239 453.406C480.848 466.255 478.972 472.379 476.611 471.776C476.087 471.534 475.617 471.122 475.202 470.539C471.21 464.686 468.014 430.286 465.616 367.341C465.368 360.578 465.229 353.474 465.198 346.029C464.984 338.451 464.804 330.058 464.659 320.85C464.648 311.459 464.654 304.251 464.677 299.227C464.603 298.753 464.529 298.279 464.455 297.805C464.489 296.989 464.494 296.503 464.469 296.345C464.445 296.187 464.208 296.224 463.758 296.456C462.968 296.58 462.335 296.679 461.861 296.753ZM503.13 344.711L502.692 345.022C499.679 346.465 497.797 347.893 497.047 349.306L501.018 346.741C502.317 345.728 503.021 345.051 503.13 344.711ZM714.94 278.294C715.266 277.272 715.957 276.516 717.014 276.026C718.071 275.537 719.124 275.534 720.171 276.018C721.194 276.344 721.95 277.036 722.439 278.093C722.928 279.15 722.931 280.202 722.447 281.25C713.238 305.201 700.993 326.307 685.712 344.568C679.563 351.846 671.987 359.833 662.983 368.529C660.592 370.847 658.651 372.932 657.159 374.785C655.668 376.637 654.609 378.665 653.982 380.869C653.355 383.072 652.891 384.764 652.59 385.945C652.471 387.259 652.277 389.638 652.006 393.081C651.893 396.5 651.76 399.273 651.607 401.403C647.282 442.08 636.654 472.488 619.724 492.627C613.817 499.381 607.576 504.001 601.001 506.487C594.293 509.156 588.37 509.597 583.232 507.81C577.62 506.097 573.116 502.671 569.721 497.534C566.327 492.397 564.535 486.119 564.345 478.699C564.037 467.411 567.977 454.811 576.165 440.898C584.195 427.01 596.999 413.104 614.578 399.179C615.611 398.532 617.584 397.171 620.498 395.095C623.57 392.995 625.902 391.335 627.492 390.114C629.241 388.869 631.389 387.075 633.938 384.733C636.67 382.525 638.702 380.506 640.035 378.678C641.527 376.825 642.89 374.669 644.125 372.208C645.517 369.723 646.265 367.258 646.369 364.813C647.093 358.059 647.141 348.011 646.511 334.668C646.014 321.143 645.143 310.914 643.897 303.984L643.786 303.272L643.511 303.072C642.919 304.461 642.163 306.36 641.245 308.771C640.46 310.999 639.742 313.136 639.09 315.181C638.413 317.068 637.562 319.388 636.535 322.14C635.483 324.734 634.448 326.92 633.431 328.698C632.414 330.477 631.105 332.463 629.505 334.657C628.038 336.668 626.497 338.204 624.882 339.267C623.4 340.146 621.511 341.009 619.214 341.854C617.075 342.674 614.812 342.704 612.426 341.944C610.43 341.609 608.701 340.907 607.239 339.841C605.909 338.591 604.348 336.892 602.554 334.743C596.862 325.269 594.858 309.874 596.543 288.557C596.528 287.426 596.958 286.549 597.832 285.927C598.682 285.146 599.685 284.827 600.841 284.97C601.972 284.955 602.928 285.372 603.709 286.222C604.489 287.071 604.808 288.074 604.665 289.23C603.582 308.185 604.935 321.496 608.726 329.162C611.405 334.897 615.184 335.764 620.064 331.761C624.677 328.124 629.465 318.873 634.427 304.008L634.753 302.985C638.169 292.734 640.964 286.79 643.138 285.155C645.019 283.727 646.815 284.336 648.525 286.984C649.958 290.97 651.058 295.414 651.825 300.314C652.725 305.032 653.267 310.048 653.451 315.364C653.793 320.655 653.927 325.654 653.854 330.362C653.914 334.887 653.902 339.99 653.819 345.671C653.737 351.352 653.73 355.969 653.8 359.52C653.954 362.573 654.426 364.038 655.216 363.914C656.189 363.924 657.725 362.874 659.824 360.764C660.383 360.191 660.795 359.722 661.062 359.356C665.018 355.66 671.174 348.948 679.531 339.219C694.121 321.714 705.924 301.406 714.94 278.294ZM619.759 405.899C603.163 418.86 591.08 431.682 583.509 444.364C575.938 457.047 572.287 468.388 572.556 478.386C572.631 484.043 573.847 488.711 576.204 492.391C578.586 496.229 581.731 498.733 585.639 499.903C589.255 501.28 593.639 500.837 598.791 498.574C603.81 496.493 608.727 492.728 613.543 487.278C629.357 468.285 639.464 438.688 643.863 398.485C644.612 391.889 644.16 388.478 642.505 388.251C640.85 388.025 638.36 389.71 635.036 393.307C633.471 394.685 632.251 395.686 631.376 396.308C630.394 397.272 626.521 400.469 619.759 405.899ZM807.117 116.422L807.265 117.37C807.597 118.452 807.441 119.529 806.799 120.601C806.315 121.649 805.532 122.338 804.45 122.669C803.344 122.842 802.267 122.687 801.22 122.203C800.306 121.536 799.683 120.662 799.352 119.58C792.55 94.733 793.133 82.415 801.101 82.626C807.755 82.718 816.793 97.013 828.215 125.51C828.497 126.276 828.754 126.883 828.986 127.333C832.268 135.888 837.623 151.488 845.053 174.132C845.715 176.296 846.241 177.59 846.632 178.015C847.155 178.257 847.551 178.195 847.817 177.829C848.217 177.281 848.677 176.075 849.195 174.213C849.304 173.872 849.425 173.61 849.558 173.427C849.666 173.086 849.775 172.745 849.884 172.404C849.992 172.064 850.101 171.723 850.21 171.382C860.238 144.387 870.213 122.746 880.134 106.456C895.291 82.223 908.726 72.347 920.439 76.831C933.907 82.173 945.114 95.319 954.059 116.268C962 134.945 966.59 156.009 967.83 179.459C969.11 204.198 966.38 226.57 959.63 246.574C956.73 254.962 954.195 261.027 952.027 264.767C949.834 268.349 945.646 274.186 939.463 282.279C938.771 283.035 938.226 283.687 937.826 284.236C937.584 284.76 937.342 285.283 937.1 285.807C936.991 286.148 936.961 286.476 937.011 286.792C937.036 286.951 937.152 287.175 937.359 287.467C937.542 287.6 937.725 287.733 937.908 287.867C938.249 287.975 938.669 288.072 939.167 288.156C939.8 288.057 940.365 288.049 940.864 288.133C941.363 288.217 942.02 288.276 942.836 288.31C943.809 288.32 944.624 288.355 945.281 288.414C954.272 288.95 961.02 290.649 965.51 293.508C970.19 296.501 973.98 302.063 976.87 310.193C977.15 310.959 977.39 311.488 977.6 311.779C977.83 312.229 978.19 312.416 978.66 312.342C979.16 312.426 979.55 312.364 979.85 312.157C980.16 312.107 980.69 311.862 981.43 311.423C982.17 310.983 982.77 310.647 983.22 310.415C1005.02 300.688 1020.25 291.989 1028.93 284.315C1030.9 282.388 1032.84 282.407 1034.77 284.373C1035.55 285.223 1035.95 286.213 1035.97 287.344C1035.98 288.476 1035.56 289.432 1034.71 290.212C1031.16 293.36 1027.1 296.423 1022.55 299.403C1017.99 302.383 1014.06 304.698 1010.76 306.349C1007.61 307.974 1003.01 310.151 996.96 312.879C991.07 315.583 986.78 317.631 984.08 319.025C982.73 319.722 981.62 320.381 980.74 321.004C980.03 321.602 979.47 322.175 979.07 322.723C978.69 323.43 978.33 324.216 977.98 325.08C977.79 325.92 977.66 326.668 977.6 327.325C977.57 328.141 977.41 329.217 977.14 330.556C977.02 331.87 976.81 333.118 976.51 334.299C974.72 342.514 971.1 349.962 965.67 356.642C960.42 363.455 954.055 368.824 946.571 372.748C941.711 374.804 936.502 376.185 930.944 376.893C925.57 377.734 919.943 377.48 914.064 376.133C908.368 374.919 903.709 372.571 900.087 369.088C897.977 366.989 896.512 364.87 895.692 362.731C895.029 360.568 894.945 358.476 895.439 356.455C895.957 354.593 896.871 352.668 898.179 350.682C899.513 348.854 901.029 347.159 902.728 345.598C904.452 344.195 906.438 342.912 908.685 341.751C911.333 340.041 914.783 338.287 919.036 336.488C923.472 334.822 928.752 332.863 934.878 330.609C941.003 328.355 944.831 326.946 946.362 326.383C960.41 320.946 968.04 317.405 969.24 315.76C969.91 313.873 969.2 311.393 967.1 308.321C965.02 305.406 962.94 302.979 960.86 301.038C952.583 294.721 939.001 294.336 920.111 299.882C918.422 300.47 916.574 301.083 914.569 301.721L912.509 302.529C911.718 302.652 910.995 302.685 910.338 302.625C909.681 302.566 909.065 302.258 908.492 301.7C907.944 301.299 907.541 300.796 907.284 300.188C907.002 299.422 906.891 298.711 906.95 298.054C907.009 297.397 907.239 296.794 907.639 296.246C908.172 295.515 908.743 295.021 909.351 294.764L909.588 294.726C920.608 289.602 929.301 283.059 935.667 275.1C942.009 266.982 947.36 256.671 951.719 244.167C958.28 225.003 960.92 203.617 959.66 180.009C958.41 157.532 954.046 137.404 946.568 119.626C937.88 99.285 927.686 87.438 915.987 84.086C913.784 83.459 911.079 84.287 907.874 86.57C904.643 88.695 901.991 90.891 899.917 93.159C897.842 95.427 895.938 97.749 894.205 100.126C886.712 110.205 878.907 123.977 870.789 141.441C862.829 158.881 856.98 174.29 853.243 187.669C852.567 189.556 852.115 191.327 851.888 192.982C851.661 194.637 851.684 196.334 851.956 198.073C852.203 199.653 852.413 200.997 852.587 202.104C852.893 203.027 853.377 204.571 854.04 206.735C854.702 208.898 855.211 210.6 855.567 211.84C862.375 238.792 867.011 265.84 869.476 292.985C869.942 299.066 870.299 305.488 870.547 312.251C870.954 318.989 871.091 327.632 870.96 338.179C870.853 348.884 870.257 358.532 869.172 367.123C868.087 375.714 866.191 383.784 863.485 391.333C860.804 399.04 857.254 404.292 852.833 407.089C850.368 408.932 847.967 409.631 845.63 409.187C843.318 408.901 841.248 408.091 839.42 406.758C837.617 405.583 835.873 403.75 834.188 401.261C832.528 398.929 831.196 396.627 830.192 394.355C829.214 392.241 828.302 390.036 827.457 387.739C820.848 367.234 818.793 338.567 821.29 301.738C823.651 273.352 830.008 239.969 840.36 201.587C840.903 199.883 841.209 198.215 841.278 196.585C841.505 194.93 841.611 193.537 841.596 192.406C841.581 191.275 841.383 190.01 841.002 188.612C840.755 187.031 840.478 185.779 840.171 184.855C839.84 183.773 839.289 182.321 838.518 180.498C837.881 178.493 837.384 176.87 837.028 175.63C827.878 146.13 818.596 121.995 809.182 103.224C804.097 93.493 802.387 93.437 804.054 103.055C804.623 106.69 805.644 111.146 807.117 116.422ZM861.303 293.535C858.779 267.047 854.291 240.947 847.839 215.235C846.905 211.333 846.028 210.903 845.208 213.946C844.966 214.47 844.774 215.31 844.631 216.466L843.979 218.511C836.461 247.056 831.684 275.011 829.649 302.374C828.92 312.205 828.502 322.473 828.395 333.178C828.447 343.858 829.511 355.838 831.588 369.116C833.666 382.395 836.925 391.844 841.367 397.465C847.603 405.235 853.184 399.503 858.111 380.271C859.291 375.39 860.204 370.874 860.85 366.725C863.514 347.522 863.665 323.126 861.303 293.535ZM903.797 357.091L903.634 357.602C903.264 360.413 904.688 362.782 907.904 364.708C911.12 366.634 914.396 367.903 917.73 368.515C921.223 369.102 924.259 369.356 926.838 369.276C933.759 369.003 940.183 367.107 946.11 363.589C952.038 360.07 956.91 355.502 960.73 349.885C964.55 344.267 967.32 338.166 969.04 331.58C969.92 327.88 969.47 326.087 967.71 326.201C965.95 326.315 963.66 327.239 960.86 328.974C955.705 331.237 948.389 334.163 938.91 337.751C929.431 341.34 923.859 343.507 922.194 344.253C912.132 348.256 906 352.536 903.797 357.091ZM1026.9 218.802C1027.04 217.646 1027.55 216.757 1028.43 216.134C1029.43 215.329 1030.44 215.01 1031.43 215.178C1032.59 215.321 1033.49 215.908 1034.14 216.941C1034.92 217.79 1035.24 218.793 1035.09 219.949C1032.06 241.962 1033.71 257.657 1040.03 267.032C1042.57 270.845 1045.76 273.1 1049.59 273.795C1053.58 274.467 1058.05 273.525 1063 270.97C1069.87 267.303 1076.88 260.862 1084.02 251.648C1091.16 242.433 1097.69 230.805 1103.59 216.765C1103.91 215.742 1104.62 215.065 1105.7 214.734C1106.75 214.245 1107.81 214.242 1108.85 214.726C1109.88 215.052 1110.63 215.743 1111.12 216.8C1111.61 217.857 1111.61 218.91 1111.13 219.957C1104.88 234.862 1097.84 247.3 1090 257.271C1082.33 267.216 1074.6 274.255 1066.83 278.386C1060.24 281.846 1054.02 282.981 1048.17 281.791C1042 280.651 1037.01 277.221 1033.2 271.501C1025.79 260.353 1023.69 242.787 1026.9 218.802ZM1028.34 189.184C1029.56 187.696 1031.05 186.817 1032.78 186.545C1034.52 186.273 1036.04 186.682 1037.35 187.774C1038.81 188.841 1039.6 190.256 1039.71 192.02C1039.99 193.758 1039.51 195.371 1038.28 196.859C1037.22 198.321 1035.81 199.188 1034.08 199.46C1032.34 199.732 1030.74 199.335 1029.27 198.268C1027.97 197.177 1027.18 195.762 1026.91 194.023C1026.8 192.259 1027.27 190.646 1028.34 189.184ZM1090.43 182.142C1089.68 175.295 1090.9 169.599 1094.07 165.053C1103.24 156.332 1109.97 159.004 1114.28 173.067C1115.23 175.023 1115.8 177.607 1115.97 180.818C1116.29 183.846 1116.41 186.175 1116.34 187.805C1116.4 189.253 1116.35 191.528 1116.19 194.63C1116.03 197.733 1115.94 200.257 1115.92 202.203C1116.04 202.994 1116.15 203.705 1116.25 204.337C1116.51 204.945 1116.91 205.449 1117.46 205.849C1118.01 206.249 1118.47 206.582 1118.83 206.849C1119.17 206.958 1119.87 207.254 1120.91 207.738C1121.94 208.064 1122.62 208.281 1122.96 208.389C1124.01 208.873 1125.58 209.599 1127.67 210.567C1129.9 211.352 1131.29 211.945 1131.84 212.345C1132.52 212.562 1133.58 213.125 1135.02 214.034C1136.59 214.76 1137.76 215.547 1138.54 216.397C1139.3 217.088 1140.19 218.084 1141.2 219.383C1142.37 220.657 1143.5 222.181 1144.59 223.954C1147.35 229.19 1148.71 237.884 1148.67 250.037C1148.76 264.111 1151.01 273.8 1155.4 279.105C1157.77 281.812 1160.63 283.064 1164 282.861C1168 282.558 1172.54 280.473 1177.6 276.604C1185.53 270.343 1193.48 260.598 1201.45 247.367C1209.55 233.953 1216.83 217.834 1223.28 199.012C1223.58 197.831 1224.26 196.996 1225.31 196.507C1226.37 196.017 1227.42 196.015 1228.47 196.499C1229.65 196.8 1230.49 197.479 1230.97 198.536C1231.44 199.435 1231.51 200.396 1231.18 201.418C1224.38 221.106 1216.67 238.022 1208.03 252.167C1199.52 266.129 1191.02 276.448 1182.51 283.124C1176.3 287.981 1170.4 290.605 1164.79 290.997C1158.55 291.487 1153.34 289.225 1149.15 284.212C1143.38 277.341 1140.47 265.975 1140.42 250.112C1140.5 239.249 1139.5 231.795 1137.41 227.749C1135.77 225.576 1134.03 223.744 1132.17 222.252C1130.32 220.76 1128.87 219.773 1127.82 219.289C1126.93 218.78 1125.02 217.946 1122.09 216.785C1119.13 215.467 1117.05 214.578 1115.84 214.119C1114.61 213.502 1113.64 213.492 1112.92 214.09C1112.36 214.663 1112 215.448 1111.83 216.446C1111.8 217.261 1111.46 218.205 1110.82 219.277C1110.33 220.325 1109.48 221.105 1108.27 221.619C1106.45 222.39 1105.03 222.126 1104.01 220.827C1102.98 219.37 1102.93 217.515 1103.87 215.262C1103.96 214.763 1104.25 214.069 1104.76 213.18C1105.7 210.927 1106.13 209.484 1106.03 208.852C1105.93 208.22 1105.23 207.358 1103.92 206.266C1102.05 204.617 1100.4 202.93 1099 201.206C1096.48 198.524 1094.68 195.81 1093.6 193.063C1092.52 190.317 1091.47 186.676 1090.43 182.142ZM1103.15 168.734C1101.95 168.275 1100.97 168.752 1100.22 170.165C1099.63 171.553 1099.25 173.312 1099.1 175.441C1099.11 177.546 1099.09 179.492 1099.04 181.28C1099.16 183.044 1099.35 184.309 1099.64 185.074C1100.03 187.604 1100.9 190.059 1102.25 192.439C1103.75 194.796 1105.44 196.312 1107.33 196.988C1108.5 196.158 1108.75 192.636 1108.11 186.421C1107.59 180.024 1106.95 175.914 1106.18 174.091C1105.49 171.77 1104.48 169.984 1103.15 168.734ZM1212.46 66.37L1212.63 61.242C1212.61 60.111 1213.03 59.155 1213.88 58.374C1214.73 57.593 1215.72 57.196 1216.85 57.181C1217.66 57.215 1218.35 57.432 1218.89 57.832C1219.6 58.208 1220.09 58.778 1220.38 59.544C1220.79 60.127 1220.97 60.747 1220.91 61.404C1220.61 67.766 1220.42 77.918 1220.33 91.859C1220.22 105.642 1220.48 112.97 1221.1 113.845C1222.29 115.277 1231.29 115.327 1248.09 113.995C1264.86 112.505 1276 111.248 1281.5 110.225C1292.65 107.995 1301.84 104.614 1309.07 100.082C1316.27 95.393 1321.42 88.434 1324.51 79.205C1324.81 78.025 1325.41 77.202 1326.31 76.737C1327.34 76.09 1328.37 75.929 1329.39 76.255C1330.57 76.556 1331.4 77.235 1331.89 78.292C1332.54 79.325 1332.7 80.352 1332.38 81.375C1330.53 87.17 1327.94 92.353 1324.61 96.923C1321.25 101.335 1317.12 104.977 1312.23 107.848C1307.31 110.561 1302.48 112.854 1297.76 114.727C1293.03 116.6 1287.34 118.056 1280.71 119.095C1274.04 119.975 1268.39 120.616 1263.76 121.017C1259.28 121.393 1253.68 121.785 1246.94 122.191C1246.44 122.107 1245.14 122.068 1243.03 122.073C1240.93 122.079 1238.84 122.163 1236.76 122.326C1234.65 122.332 1232.48 122.428 1230.24 122.617C1227.98 122.647 1226.07 122.864 1224.52 123.27C1222.93 123.517 1222.01 123.823 1221.74 124.189C1221.13 125.419 1221.37 131.13 1222.48 141.321C1223.57 151.354 1224.82 160.955 1226.26 170.123C1227.69 179.292 1228.81 185.919 1229.61 190.004C1233.97 211.67 1239.82 229.866 1247.14 244.591C1254.67 259.607 1263.24 269.36 1272.85 273.848C1282.48 278.495 1293 277.416 1304.41 270.612C1326.05 257.833 1349.04 226.706 1373.36 177.232C1373.85 176.184 1374.63 175.495 1375.71 175.164C1376.8 174.833 1377.78 174.921 1378.67 175.43C1379.72 175.914 1380.41 176.697 1380.74 177.779C1381.23 178.836 1381.23 179.888 1380.75 180.935C1355.67 231.823 1331.65 264.083 1308.68 277.717C1294.76 286.049 1281.59 287.299 1269.18 281.467C1257.98 276.094 1248.16 265.08 1239.72 248.423C1234.49 237.744 1230.04 225.889 1226.39 212.857C1222.86 199.643 1220.23 187.504 1218.5 176.438C1216.9 165.19 1215.57 152.524 1214.5 138.44C1214 133.174 1213.11 128.536 1211.84 124.524C1206.35 123.602 1199.46 123.546 1191.16 124.358C1182.84 125.012 1174.61 126.705 1166.45 129.438C1158.14 132.197 1152.22 135.794 1148.71 140.231C1145.46 144.302 1143.73 149.835 1143.53 156.83C1143.54 157.962 1143.13 158.918 1142.28 159.698C1141.43 160.479 1140.44 160.877 1139.31 160.892C1138.18 160.907 1137.23 160.569 1136.48 159.877C1135.7 159.028 1135.3 158.037 1135.28 156.906C1135.32 153.013 1135.82 149.454 1136.77 146.228C1137.72 143.002 1138.83 140.238 1140.09 137.935C1141.32 135.475 1143.08 133.257 1145.36 131.28C1147.62 129.146 1149.78 127.431 1151.85 126.136C1153.75 124.866 1156.41 123.722 1159.81 122.704C1163.03 121.552 1165.72 120.645 1167.89 119.983C1170.05 119.321 1173.12 118.759 1177.1 118.299C1181.05 117.681 1184.14 117.278 1186.38 117.089C1188.46 116.926 1191.57 116.602 1195.7 116.117C1199.07 115.914 1201.55 115.689 1203.13 115.441C1207.92 115.016 1210.67 114.504 1211.39 113.906C1212.08 113.15 1212.52 110.248 1212.7 105.199C1212.66 101.805 1212.59 97.766 1212.51 93.083C1212.4 88.242 1212.31 83.559 1212.25 79.034C1212.35 74.484 1212.42 70.263 1212.46 66.37ZM1365.17 103.452L1365.07 101.281C1365.47 82.109 1367.53 64.702 1371.23 49.061C1373.79 37.486 1377.47 27.8422 1382.25 20.1299C1387.04 12.4175 1392.18 6.99731 1397.69 3.86921C1402.31 1.36371 1406.95 0.476103 1411.6 1.2064C1416.27 2.0947 1420.23 4.63311 1423.48 8.82171C1431.77 19.3474 1434 36.7311 1430.18 60.973C1428.44 69.504 1426.37 77.52 1423.98 85.02C1421.73 92.336 1419.05 99.557 1415.96 106.681C1412.84 113.647 1409.91 119.773 1407.17 125.059C1404.57 130.163 1401 136.875 1396.47 145.195C1392.1 153.49 1388.43 160.543 1385.45 166.353C1382.02 173.368 1380.48 180.087 1380.83 186.509C1381.19 192.931 1383.12 199.592 1386.63 206.493C1388.17 210.138 1389.4 210.19 1390.3 206.648C1390.36 205.991 1390.54 205.072 1390.84 203.891C1391.07 202.236 1391.29 201.068 1391.51 200.386C1392.65 196.32 1393.98 191.901 1395.5 187.129C1397.18 182.331 1399.38 176.724 1402.1 170.306C1404.8 163.731 1407.76 158.328 1410.99 154.099C1414.37 149.845 1417.59 147.641 1420.64 147.487L1422.37 147.702L1424.14 148.154L1425.79 149.354C1429.5 152.337 1432.73 160.576 1435.49 174.072C1436.18 178.498 1436.7 181.818 1437.04 184.031C1437.37 186.086 1438.12 189.855 1439.3 195.338C1440.64 200.797 1441.89 205.136 1443.04 208.357C1444.35 211.553 1445.98 214.778 1447.95 218.034C1450.08 221.264 1452.33 223.259 1454.72 224.02L1458.7 224.612C1461.7 224.142 1465.09 221.992 1468.86 218.163C1472.82 214.467 1476.24 210.45 1479.12 206.112C1482.17 201.75 1485.56 196.036 1489.32 188.971C1493.07 181.906 1495.79 176.54 1497.49 172.875C1499.16 169.051 1501.32 164.258 1503.98 158.498L1504.71 156.927C1505.19 155.879 1505.98 155.19 1507.06 154.859C1508.11 154.37 1509.17 154.367 1510.21 154.851C1511.26 155.335 1511.95 156.118 1512.28 157.199C1512.77 158.257 1512.76 159.23 1512.25 160.119L1511.56 161.927C1508.79 168.029 1506.43 173.095 1504.47 177.127C1502.67 181.133 1499.68 186.864 1495.5 194.32C1491.48 201.75 1487.73 207.842 1484.27 212.595C1480.96 217.323 1477.03 221.743 1472.5 225.854C1468.11 229.94 1463.95 232.293 1460 232.911C1455.79 232.921 1452.09 232.043 1448.89 230.275C1445.7 228.507 1443.1 225.837 1441.08 222.266C1439.09 218.853 1437.53 215.615 1436.41 212.552C1435.28 209.49 1434.05 205.795 1432.73 201.468C1432.51 200.045 1431.67 195.722 1430.21 188.5C1428.74 181.12 1427.29 174.464 1425.87 168.531C1424.46 162.598 1423.18 159.074 1422.03 157.957C1418.8 154.9 1414.2 161.207 1408.23 176.878C1406.26 181.883 1403.59 189.669 1400.23 200.236C1396.92 210.147 1394.87 215.65 1394.07 216.747C1393.05 218.526 1391.84 219.605 1390.44 219.986C1389.2 220.342 1387.97 220.211 1386.74 219.594C1385.64 218.794 1384.6 217.823 1383.61 216.682C1382.62 215.541 1381.67 214.151 1380.77 212.511C1379.87 210.871 1379.07 209.377 1378.37 208.028C1377.83 206.655 1377.4 205.428 1377.06 204.346C1374.05 195.425 1371.72 184.695 1370.08 172.158C1368.29 159.645 1367 147.781 1366.22 136.568C1365.41 125.196 1365.06 114.157 1365.17 103.452ZM1421.95 59.589C1425.51 37.817 1423.86 22.6093 1417 13.9655C1414.97 11.3674 1412.63 9.87101 1409.98 9.47631C1407.46 8.89881 1404.72 9.48971 1401.76 11.2489C1398.77 12.85 1395.84 15.333 1392.96 18.6977C1390.24 22.0377 1387.62 26.4966 1385.09 32.0744C1382.72 37.627 1380.78 43.842 1379.27 50.719C1375.64 65.861 1373.67 82.769 1373.35 101.442C1373.01 133.4 1374.56 153.157 1378.01 160.715C1381.18 159.247 1387.26 148.904 1396.23 129.685C1405.19 110.309 1411.42 95.811 1414.94 86.192C1418.16 76.781 1420.5 67.913 1421.95 59.589ZM1510.12 173.327C1510.81 180.83 1512.6 183.952 1515.48 182.692C1518.65 181.224 1521.85 175.785 1525.07 166.373C1527.29 159.872 1527.95 155.801 1527.05 154.161C1526.32 152.654 1524.75 151.928 1522.33 151.983C1520.05 151.855 1517.68 152.792 1515.24 154.793C1512.78 156.636 1511.18 159.395 1510.46 163.071C1510.02 165.408 1509.91 168.826 1510.12 173.327ZM1618.33 136.723C1618.63 135.542 1619.31 134.707 1620.36 134.218C1621.42 133.728 1622.46 133.647 1623.48 133.973C1624.51 134.298 1625.26 134.99 1625.75 136.047C1626.4 137.079 1626.56 138.107 1626.23 139.129C1623.71 146.812 1619.37 155.831 1613.22 166.186C1607.04 176.384 1600.34 184.8 1593.12 191.436C1587.53 196.036 1582.36 199.273 1577.64 201.146C1572.93 203.177 1568.69 204.003 1564.91 203.624C1561.3 203.377 1557.83 201.896 1554.49 199.179C1551.29 196.28 1548.39 192.766 1545.8 188.637C1543.19 184.349 1540.65 178.997 1538.19 172.58C1537.42 170.758 1536.73 169.488 1536.13 168.772C1535.51 167.898 1534.83 167.68 1534.09 168.12C1533.51 168.535 1532.97 169.267 1532.49 170.314C1531.98 171.203 1531.23 172.616 1530.24 174.553C1530.02 175.235 1529.55 176.361 1528.82 177.932C1528.25 179.479 1527.85 180.514 1527.61 181.037C1527.36 181.561 1526.94 182.438 1526.32 183.668C1525.68 184.74 1525.14 185.471 1524.72 185.862C1524.29 186.252 1523.66 186.838 1522.81 187.618C1522.11 188.374 1521.32 188.985 1520.42 189.449C1519.68 189.889 1518.7 190.366 1517.49 190.88C1516.4 191.211 1515.16 191.567 1513.77 191.948C1509.53 191.8 1506.48 189.363 1504.61 184.635C1502.58 179.933 1501.63 174.899 1501.76 169.534C1501.89 164.169 1502.66 159.758 1504.06 156.299C1509.65 144.413 1518.77 141.123 1531.42 146.431C1532.65 147.049 1533.72 147.125 1534.62 146.661C1535.65 146.013 1536.73 146.169 1537.85 147.127C1538.97 148.085 1540.02 150.108 1540.98 153.195C1541.27 153.961 1541.71 155.267 1542.33 157.115C1543.09 159.911 1543.67 162.087 1544.08 163.643C1544.64 165.174 1545.39 167.404 1546.34 170.334C1547.28 173.263 1548.13 175.56 1548.87 177.224C1549.75 178.706 1550.8 180.729 1552.01 183.293C1553.19 185.698 1554.37 187.538 1555.54 188.813C1556.85 189.904 1558.27 191.22 1559.81 192.761C1561.32 194.144 1562.91 195.028 1564.59 195.413C1566.41 195.615 1568.29 195.726 1570.23 195.746C1572.31 195.582 1574.48 194.92 1576.72 193.759C1579.1 192.414 1581.59 190.729 1584.19 188.703C1585.92 187.3 1588.17 185.166 1590.96 182.3C1596.49 176.252 1601.7 169.123 1606.56 160.911C1611.43 152.7 1615.36 144.637 1618.33 136.723ZM1737.5 118.321C1737.83 117.299 1738.52 116.543 1739.58 116.054C1740.63 115.564 1741.69 115.562 1742.73 116.046C1743.76 116.371 1744.51 117.063 1745 118.12C1745.49 119.177 1745.49 120.229 1745.01 121.277C1735.8 145.228 1723.56 166.334 1708.27 184.595C1702.13 191.873 1694.55 199.86 1685.54 208.557C1683.15 210.874 1681.21 212.959 1679.72 214.812C1678.23 216.665 1677.17 218.693 1676.54 220.896C1675.92 223.099 1675.45 224.791 1675.15 225.972C1675.03 227.286 1674.84 229.665 1674.57 233.108C1674.45 236.527 1674.32 239.301 1674.17 241.43C1669.84 282.107 1659.22 312.515 1642.29 332.654C1636.38 339.408 1630.14 344.028 1623.56 346.514C1616.86 349.183 1610.93 349.624 1605.79 347.837C1600.18 346.124 1595.68 342.699 1592.28 337.562C1588.89 332.425 1587.1 326.146 1586.91 318.726C1586.6 307.438 1590.54 294.838 1598.73 280.925C1606.76 267.037 1619.56 253.131 1637.14 239.206C1638.17 238.559 1640.15 237.198 1643.06 235.122C1646.13 233.022 1648.46 231.362 1650.05 230.141C1651.8 228.896 1653.95 227.103 1656.5 224.76C1659.23 222.552 1661.26 220.533 1662.6 218.705C1664.09 216.852 1665.45 214.696 1666.69 212.235C1668.08 209.75 1668.83 207.285 1668.93 204.84C1669.66 198.087 1669.7 188.038 1669.07 174.696C1668.58 161.17 1667.71 150.941 1666.46 144.011L1666.35 143.299L1666.07 143.099C1665.48 144.488 1664.73 146.387 1663.81 148.798C1663.02 151.026 1662.3 153.163 1661.65 155.208C1660.98 157.096 1660.12 159.415 1659.1 162.167C1658.05 164.761 1657.01 166.947 1655.99 168.725C1654.98 170.504 1653.67 172.49 1652.07 174.684C1650.6 176.695 1649.06 178.231 1647.44 179.294C1645.96 180.173 1644.07 181.036 1641.78 181.881C1639.64 182.701 1637.37 182.732 1634.99 181.971C1632.99 181.636 1631.26 180.935 1629.8 179.868C1628.47 178.618 1626.91 176.919 1625.12 174.77C1619.42 165.297 1617.42 149.901 1619.11 128.585C1619.09 127.453 1619.52 126.576 1620.39 125.954C1621.24 125.173 1622.25 124.854 1623.4 124.997C1624.53 124.982 1625.49 125.399 1626.27 126.249C1627.05 127.099 1627.37 128.101 1627.23 129.257C1626.14 148.213 1627.5 161.523 1631.29 169.19C1633.97 174.924 1637.75 175.791 1642.63 171.788C1647.24 168.152 1652.03 158.9 1656.99 144.035L1657.31 143.012C1660.73 132.761 1663.53 126.817 1665.7 125.182C1667.58 123.754 1669.38 124.364 1671.09 127.011C1672.52 130.998 1673.62 135.441 1674.39 140.341C1675.29 145.059 1675.83 150.075 1676.01 155.391C1676.35 160.682 1676.49 165.681 1676.42 170.389C1676.48 174.914 1676.46 180.017 1676.38 185.698C1676.3 191.379 1676.29 195.996 1676.36 199.548C1676.52 202.601 1676.99 204.065 1677.78 203.941C1678.75 203.951 1680.29 202.901 1682.39 200.791C1682.94 200.218 1683.36 199.749 1683.62 199.383C1687.58 195.687 1693.74 188.975 1702.09 179.246C1716.68 161.741 1728.49 141.433 1737.5 118.321ZM1642.32 245.926C1625.73 258.887 1613.64 271.709 1606.07 284.392C1598.5 297.074 1594.85 308.415 1595.12 318.413C1595.19 324.07 1596.41 328.738 1598.77 332.418C1601.15 336.256 1604.29 338.76 1608.2 339.93C1611.82 341.307 1616.2 340.864 1621.35 338.601C1626.37 336.52 1631.29 332.755 1636.1 327.305C1651.92 308.313 1662.03 278.715 1666.43 238.512C1667.17 231.917 1666.72 228.506 1665.07 228.279C1663.41 228.052 1660.92 229.737 1657.6 233.334C1656.03 234.712 1654.81 235.713 1653.94 236.335C1652.96 237.299 1649.08 240.496 1642.32 245.926Z" fill="white" fill-opacity="0.6"/>
</svg>
